# xmcd CD database file
#
# Track frame offsets:
#	150
#	30210
#	49787
#	90657
#	119772
#	158810
#	202110
#	235180
#	247007
#
# Disc length: 3630 seconds
#
# Revision: 4
# Processed by: cddbd v1.5.1PL2 Copyright (c) Steve Scherf et al.
# Submitted via: CDex 1.51
#
DISCID=740e2c09
DTITLE=Jacky Terrasson Trio - Alive
DYEAR=1997
DGENRE=Jazz
TTITLE0=Things Ain't What They Used to Be
TTITLE1=Cumba's Dance
TTITLE2=Sister Cheryl
TTITLE3=Simple Things
TTITLE4=Nature Boy
TTITLE5=Love For Sale
TTITLE6=Fog Taking Over Noe Valley
TTITLE7=The Theme
TTITLE8=There's No Disapointment In Heaven
EXTD=\n\n YEAR: 1997
EXTT0=
EXTT1=
EXTT2=
EXTT3=
EXTT4=
EXTT5=
EXTT6=
EXTT7=
EXTT8=
PLAYORDER=
